PathFileType	4	(X/Y/Z)	Patient5_TMGait_0pt45_1_right_07.trc.trc
DataRate	CameraRate	NumFrames	NumMarkers	Units	OrigDataRate	OrigDataStartFrame	OrigNumFrames
59.071729957806	59.071729957806	4	32	mm	59.071729957806	89	       141
Frame#	Time	R.ASIS			L.ASIS			Chest			R.Shoulder			Neck			L.Shoulder			L.Elbow			L.Wrist			R.Elbow			R.Wrist			L.Thigh.Superior			L.Thigh.Lateral			L.Thigh.Inferior			L.Patella			L.Shank.Superior			L.Shank.Lateral			L.Shank.Inferior			L.Heel			L.Midfoot.Lateral			L.Midfoot.Superior			L.Toe			R.Thigh.Superior			R.Thigh.Lateral			R.Thigh.Inferior			R.Patella			R.Shank.Superior			R.Shank.Lateral			R.Shank.Inferior			R.Heel			R.Midfoot.Lateral			R.Midfoot.Superior			R.Toe			
		X1	Y1	Z1	X2	Y2	Z2	X3	Y3	Z3	X4	Y4	Z4	X5	Y5	Z5	X6	Y6	Z6	X7	Y7	Z7	X8	Y8	Z8	X9	Y9	Z9	X10	Y10	Z10	X11	Y11	Z11	X12	Y12	Z12	X13	Y13	Z13	X14	Y14	Z14	X15	Y15	Z15	X16	Y16	Z16	X17	Y17	Z17	X18	Y18	Z18	X19	Y19	Z19	X20	Y20	Z20	X21	Y21	Z21	X22	Y22	Z22	X23	Y23	Z23	X24	Y24	Z24	X25	Y25	Z25	X26	Y26	Z26	X27	Y27	Z27	X28	Y28	Z28	X29	Y29	Z29	X30	Y30	Z30	X31	Y31	Z31	X32	Y32	Z32	

89	12.659714285714	1053.489540604845	1022.254930393247	526.107036286375	1077.712586946411	963.664812493509	283.240460510298	1138.253479660817	1450.513276366231	402.714619330790	1005.440641564979	1518.172654035204	541.607713479694	1026.010931631910	1575.893483887735	357.773871354745	1125.305407691699	1516.596688159503	198.972006240284	1107.760706401354	1194.029847967363	61.892824763085	1262.731055327581	952.891855953811	88.301778361602	880.493298516786	1202.915419348978	660.227193860805	1092.350799141411	1004.565772720446	643.741329759128	1095.597121001678	749.521838028825	286.986524548335	1023.064140453109	676.891158233894	250.189394264972	1096.434099661774	622.319368305014	314.595781897986	1096.426491358996	504.667676340674	326.342765224520	1047.122976135688	403.051771771860	351.816943591763	979.453813411759	332.265614060126	275.795594442787	1011.095986330595	281.227760792985	365.941391436226	873.347936513999	51.677270277474	377.120413903862	963.429477487602	26.752064556521	319.548857327179	1059.692508717764	88.790223511764	365.305670663618	1165.995170168474	45.517457751296	375.254474652771	1083.275189114333	798.964332597395	578.411503870590	999.604408210089	725.113758272649	638.929122615877	1091.688473487935	667.775475138992	587.534104220200	1095.042701468297	570.459906386196	638.190547573349	1037.887988702706	465.140381894145	606.837870530593	938.595510224515	423.212289801796	676.659396900669	991.375995096124	333.043836096895	615.887731171000	834.881994123757	139.038998207618	578.060831713159	884.938841184084	93.647301007164	667.257560285185	1004.772420447428	130.815711591836	674.732945847502	1091.222300989190	64.152076303602	697.904849066807	
90	12.676642857143	1051.550397335367	1022.859732457259	525.841500544278	1075.282729401277	963.752952393958	282.480179076790	1135.828213781760	1450.762024390343	400.542336420092	1003.262566964481	1518.786127347064	539.413062578067	1023.573689092669	1576.145265664467	355.440109629464	1122.751774049231	1516.344667340091	196.728450551286	1106.957462905856	1193.113141203381	60.943631152091	1263.201821956009	952.920568854267	88.392052550754	879.053974182791	1203.613544942274	658.962753292731	1090.774924578797	1005.193296255298	641.273556790410	1092.111335622260	749.388031141418	286.250219721619	1018.767512788408	677.113029140436	249.779802805195	1092.074655007459	621.960869112173	313.384856954161	1091.156008545231	504.187618890995	324.968850586596	1041.332950150683	402.920303069916	350.786417370687	972.727050873580	332.588350773641	275.316004130332	1004.871857355681	281.332756414802	365.231258970250	865.786671110879	51.899760880754	376.960763563059	955.831975163654	26.717168453975	319.459555439238	1052.204887178698	88.823085572554	364.913381192428	1158.362409622687	45.486960190380	375.135543220759	1080.522074651971	799.801287717073	577.539049709837	997.411600618099	726.194500556532	638.772629008081	1089.795810644086	669.541709708134	587.339357237934	1095.088435282340	573.499376941745	638.865110775702	1043.588446337366	467.322720159705	608.147896694242	946.139611095836	420.970384283603	677.507338018330	1004.538706466736	333.059669136315	618.484692139964	859.394410501143	129.372328433491	581.787513107597	911.791886625734	87.969963368201	671.736841517134	1029.059699096062	132.439798878902	679.567876894467	1119.439990982284	71.436441573384	703.991415803067	
91	12.693571428571	1049.704246160362	1023.427294537552	526.152563668378	1072.692153767983	963.892031961101	281.901184682041	1133.244102933874	1450.925193384122	398.601877275070	1000.933839327045	1519.426784124934	537.403305867525	1021.013155675857	1576.354884770652	353.277029286979	1120.117063758307	1515.952898437469	194.683295224735	1105.806221919602	1192.082129861822	60.213877996004	1263.071101762692	952.671573958878	88.623194654648	877.683595833202	1204.295048044296	657.958123043913	1089.471791038708	1006.034861674245	639.073560910367	1088.541699412596	749.247870339209	285.577638522488	1014.520531254917	677.344716731562	249.316045075485	1087.699296775755	621.661223292579	312.319763769307	1085.892650539176	503.736287316243	323.688488911957	1035.544028841485	402.808156304705	349.803159312642	966.026471246510	332.951088701733	274.845161164840	998.664160956500	281.456833908548	364.556521474114	858.225831134481	52.147752262319	376.773986709938	948.238279215124	26.680787753214	319.357186687127	1044.728221120183	88.864564837494	364.500420711636	1150.727302748846	45.465882296023	375.012927244308	1078.043319604878	800.968536782393	577.353155941892	995.933989676479	727.261295360632	638.871447646919	1088.995130721287	671.692883815091	587.521514091830	1096.338798745717	576.754520104553	639.697927663632	1050.213032977136	469.970712085470	609.331473586671	954.672583326459	419.408249867832	678.274227227434	1018.084863735674	334.014319707641	620.581384469804	883.686798537745	122.210053412408	584.987930825845	938.339117229445	84.103954973668	675.037923237352	1052.840316178195	135.201239308610	682.916655791495	1146.667418978480	79.590358749305	707.698256852464	
92	12.710500000000	1047.959419173666	1023.981721505787	526.909889284149	1069.930956688144	964.104641886232	281.480182196464	1130.488683026068	1451.026505424544	396.914888562399	998.426242601667	1520.100785631650	535.600933199698	1018.316028859199	1576.535512594242	351.322714842766	1117.404301414421	1515.463665206141	192.875625983137	1104.321628627260	1190.991788061778	59.706999315621	1262.345136107811	952.187766101028	88.991536342025	876.290320344719	1204.968695598025	657.170541156211	1088.397393186679	1007.144626564446	637.184574245615	1084.852930615820	749.085355045787	284.983519104588	1010.273977284660	677.589746387455	248.817534442377	1083.237494826082	621.415769703653	311.433213607451	1080.560756981451	503.314563002807	322.533791988543	1029.704718021945	402.718303406036	348.898088338079	959.314989519230	333.340329551382	274.405936961355	992.419104229433	281.589283579525	363.935777768934	850.656949471600	52.400100990121	376.585329137369	940.641545009881	26.651448152252	319.250327839291	1037.252212329658	88.905556475235	364.093335760303	1143.087392929977	45.458588903616	374.886994986241	1076.128916684941	802.564510118679	577.758132815593	995.455285573087	728.361455970258	639.152670717653	1089.525864514786	674.280275787423	587.949078064219	1098.990749372295	580.235552732560	640.530484589575	1057.750649424451	473.011962461226	610.307332654129	964.103864732270	418.613798895479	678.914985235682	1031.764995213031	335.801982677726	622.125809851980	907.078726865812	117.465587711618	587.570237606119	963.850180515485	82.019170463654	677.259438223706	1075.568563409074	138.914355007236	684.953311519138	1172.316169877684	88.212049461055	709.413968222549	
